<svg xmlns="http://www.w3.org/2000/svg" xmlns:xlink="http://www.w3.org/1999/xlink" version="1.1" width="256" height="256" viewBox="0 0 256 256" xml:space="preserve">

<defs>
</defs>
<g style="stroke: none; stroke-width: 0; stroke-dasharray: none; stroke-linecap: butt; stroke-linejoin: miter; stroke-miterlimit: 10; fill: none; fill-rule: nonzero; opacity: 1;" transform="translate(1.4065934065934016 1.4065934065934016) scale(2.81 2.81)" >
	<path d="M 2.571 30 l 84.859 0 C 81.254 12.534 64.611 0.015 45.034 0 l -0.068 0 C 25.389 0.015 8.745 12.534 2.571 30 z" style="stroke: none; stroke-width: 1; stroke-dasharray: none; stroke-linecap: butt; stroke-linejoin: miter; stroke-miterlimit: 10; fill: rgb(255,0,0); fill-rule: nonzero; opacity: 1;" transform=" matrix(1 0 0 1 0 0) " stroke-linecap="round" />
	<path d="M 87.429 60 L 2.571 60 C 8.75 77.476 25.408 90 45 90 S 81.25 77.476 87.429 60 z" style="stroke: none; stroke-width: 1; stroke-dasharray: none; stroke-linecap: butt; stroke-linejoin: miter; stroke-miterlimit: 10; fill: rgb(23,23,150); fill-rule: nonzero; opacity: 1;" transform=" matrix(1 0 0 1 0 0) " stroke-linecap="round" />
	<path d="M 87.429 60 C 89.088 55.307 90 50.261 90 45 c 0 -5.261 -0.912 -10.307 -2.571 -15 L 2.571 30 C 0.911 34.693 0 39.739 0 45 c 0 5.261 0.912 10.308 2.571 15 L 87.429 60 z" style="stroke: none; stroke-width: 1; stroke-dasharray: none; stroke-linecap: butt; stroke-linejoin: miter; stroke-miterlimit: 10; fill: rgb(243,244,245); fill-rule: nonzero; opacity: 1;" transform=" matrix(1 0 0 1 0 0) " stroke-linecap="round" />
	<polygon points="48.93,35.33 48.93,35.33 48.93,35.33 " style="stroke: none; stroke-width: 1; stroke-dasharray: none; stroke-linecap: butt; stroke-linejoin: miter; stroke-miterlimit: 10; fill: rgb(243,244,245); fill-rule: nonzero; opacity: 1;" transform="  matrix(1 0 0 1 0 0) "/>
	<polygon points="41.06,35.33 41.06,35.33 41.06,35.33 " style="stroke: none; stroke-width: 1; stroke-dasharray: none; stroke-linecap: butt; stroke-linejoin: miter; stroke-miterlimit: 10; fill: rgb(243,244,245); fill-rule: nonzero; opacity: 1;" transform="  matrix(1 0 0 1 0 0) "/>
	<polygon points="41.77,32.5 41.77,32.5 41.77,32.5 " style="stroke: none; stroke-width: 1; stroke-dasharray: none; stroke-linecap: butt; stroke-linejoin: miter; stroke-miterlimit: 10; fill: rgb(243,244,245); fill-rule: nonzero; opacity: 1;" transform="  matrix(1 0 0 1 0 0) "/>
	<path d="M 44.183 69.317 c 9.85 0 17.909 -8.059 17.909 -17.909 V 30.01 H 26.274 v 21.398 C 26.274 61.258 34.333 69.317 44.183 69.317 L 44.183 69.317 z" style="stroke: none; stroke-width: 1; stroke-dasharray: none; stroke-linecap: butt; stroke-linejoin: miter; stroke-miterlimit: 10; fill: rgb(255,255,255); fill-rule: nonzero; opacity: 1;" transform=" matrix(1 0 0 1 0 0) " stroke-linecap="round" />
	<path d="M 33.833 30.683 h -6.892 v 7.572 h 6.892 V 30.683 z M 33.833 45.827 h 6.892 v -7.572 h -6.892 V 45.827 z M 26.941 51.366 c 0 0.687 0.042 1.366 0.122 2.033 h 6.77 v -7.572 h -6.892 V 51.366 L 26.941 51.366 z M 47.618 45.827 h -6.892 v 7.572 h 6.892 V 45.827 z M 47.618 60.971 h 6.892 v -7.572 h -6.892 L 47.618 60.971 z M 54.51 65.113 c 1.53 -1.155 2.86 -2.554 3.935 -4.142 H 54.51 L 54.51 65.113 L 54.51 65.113 z M 33.834 60.971 h 6.892 v -7.572 h -6.892 V 60.971 z M 29.892 60.971 c 1.077 1.59 2.408 2.991 3.941 4.147 v -4.147 H 29.892 z M 45.372 68.543 c 0.763 -0.054 1.512 -0.157 2.245 -0.307 v -7.266 h -6.892 v 7.267 c 0.739 0.151 1.487 0.253 2.239 0.305 C 43.767 68.592 44.569 68.589 45.372 68.543 L 45.372 68.543 z" style="stroke: none; stroke-width: 1; stroke-dasharray: none; stroke-linecap: butt; stroke-linejoin: miter; stroke-miterlimit: 10; fill: rgb(255,0,0); fill-rule: nonzero; opacity: 1;" transform=" matrix(1 0 0 1 0 0) " stroke-linecap="round" />
	<path d="M 61.273 53.399 c 0.08 -0.67 0.122 -1.35 0.122 -2.04 v -5.532 h -6.886 V 53.4 L 61.273 53.399 L 61.273 53.399 z M 47.618 45.827 h 6.892 v -7.572 h -6.892 L 47.618 45.827 z M 47.618 30.683 h -6.892 v 7.572 h 6.892 V 30.683 z M 61.395 38.255 v -7.572 H 54.51 v 7.572 H 61.395 z" style="stroke: none; stroke-width: 1; stroke-dasharray: none; stroke-linecap: butt; stroke-linejoin: miter; stroke-miterlimit: 10; fill: rgb(255,0,0); fill-rule: nonzero; opacity: 1;" transform=" matrix(1 0 0 1 0 0) " stroke-linecap="round" />
	<path d="M 31.069 16.917 l -0.008 0.009 l -5.349 -1.981 l -2.994 4.833 l 1.147 2.607 l 2.905 6.594 c 2.186 -0.967 4.45 -1.75 6.766 -2.34 L 31.069 16.917 L 31.069 16.917 z" style="stroke: none; stroke-width: 1; stroke-dasharray: none; stroke-linecap: butt; stroke-linejoin: miter; stroke-miterlimit: 10; fill: rgb(0,147,221); fill-rule: nonzero; opacity: 1;" transform=" matrix(1 0 0 1 0 0) " stroke-linecap="round" />
	<path d="M 30.762 21.696 c 0.197 0.374 0.3 0.79 0.3 1.213 c 0 1.44 -1.174 2.615 -2.614 2.615 c -1.269 0 -2.332 -0.912 -2.566 -2.114 c 0.452 0.798 1.309 1.339 2.288 1.339 c 1.447 0 2.627 -1.18 2.627 -2.628 C 30.796 21.976 30.785 21.834 30.762 21.696 L 30.762 21.696 z" style="stroke: none; stroke-width: 1; stroke-dasharray: none; stroke-linecap: butt; stroke-linejoin: miter; stroke-miterlimit: 10; fill: rgb(255,255,255); fill-rule: nonzero; opacity: 1;" transform=" matrix(1 0 0 1 0 0) " stroke-linecap="round" />
	<path d="M 26.096 20.649 l 0.182 -0.938 l -0.719 -0.629 l -0.033 -0.029 l 0.042 -0.014 l 0.904 -0.311 l 0.185 -0.938 l 0.009 -0.043 l 0.033 0.028 l 0.721 0.627 l 0.905 -0.309 l 0.042 -0.014 l -0.009 0.043 l -0.182 0.938 l 0.72 0.629 l 0.033 0.029 l -0.042 0.014 l -0.904 0.312 l -0.185 0.938 l -0.009 0.043 l -0.033 -0.029 l -0.721 -0.627 l -0.905 0.309 l -0.042 0.014 L 26.096 20.649 z" style="stroke: none; stroke-width: 1; stroke-dasharray: none; stroke-linecap: butt; stroke-linejoin: miter; stroke-miterlimit: 10; fill: rgb(247,219,23); fill-rule: nonzero; opacity: 1;" transform=" matrix(1 0 0 1 0 0) " stroke-linecap="round" />
	<path d="M 39.775 15.462 l -0.009 0.007 l -4.948 -2.836 l -3.748 4.283 l 2.467 9.722 c 2.319 -0.589 4.682 -0.984 7.067 -1.18 L 39.775 15.462 L 39.775 15.462 z" style="stroke: none; stroke-width: 1; stroke-dasharray: none; stroke-linecap: butt; stroke-linejoin: miter; stroke-miterlimit: 10; fill: rgb(23,23,150); fill-rule: nonzero; opacity: 1;" transform=" matrix(1 0 0 1 0 0) " stroke-linecap="round" />
	<path d="M 32.925 24.226 c 2.452 -0.623 4.952 -1.041 7.473 -1.248 l -0.209 -2.527 c -2.661 0.219 -5.3 0.66 -7.888 1.317 L 32.925 24.226 L 32.925 24.226 z M 31.684 19.34 c 2.722 -0.692 5.498 -1.155 8.297 -1.386 l -0.206 -2.481 c -2.937 0.242 -5.848 0.728 -8.704 1.454 L 31.684 19.34 z" style="stroke: none; stroke-width: 1; stroke-dasharray: none; stroke-linecap: butt; stroke-linejoin: miter; stroke-miterlimit: 10; fill: rgb(255,0,0); fill-rule: nonzero; opacity: 1;" transform=" matrix(1 0 0 1 0 0) " stroke-linecap="round" />
	<path d="M 48.616 15.467 l -0.011 0.006 l -4.413 -3.614 l -4.404 3.607 l 0.829 9.998 c 1.179 -0.097 2.371 -0.149 3.575 -0.149 c 1.209 0 2.407 0.052 3.591 0.151 L 48.616 15.467 L 48.616 15.467 z" style="stroke: none; stroke-width: 1; stroke-dasharray: none; stroke-linecap: butt; stroke-linejoin: miter; stroke-miterlimit: 10; fill: rgb(0,147,221); fill-rule: nonzero; opacity: 1;" transform=" matrix(1 0 0 1 0 0) " stroke-linecap="round" />
	<path d="M 42.593 19.067 c 0.015 0.015 0.026 0.03 0.04 0.048 l 0.019 0.024 c 0.027 0.033 0.071 0.049 0.113 0.038 c 0.042 -0.01 0.074 -0.042 0.084 -0.084 c 0.015 -0.066 0.023 -0.133 0.024 -0.203 c 0.066 0.013 0.132 0.027 0.182 -0.001 c 0.016 0.002 0.031 0.003 0.044 0.003 c 0.027 -0.003 0.051 -0.008 0.071 -0.023 c 0.015 -0.006 0.029 -0.015 0.04 -0.027 c 0.033 -0.035 0.041 -0.087 0.018 -0.13 c -0.018 -0.034 -0.022 -0.065 -0.029 -0.106 c -0.001 -0.007 -0.002 -0.015 -0.004 -0.022 c 0.044 0.005 0.091 0.006 0.139 -0.002 c 0.041 -0.007 0.074 -0.037 0.087 -0.076 c 0.009 -0.026 0.007 -0.055 -0.004 -0.08 c 0 -0.013 -0.001 -0.026 -0.006 -0.039 c 0.005 -0.017 0.005 -0.036 0.001 -0.054 c -0.007 -0.031 -0.017 -0.062 -0.03 -0.095 c 0.045 0.005 0.09 -0.002 0.135 -0.014 c 0.012 -0.003 0.022 -0.007 0.032 -0.013 c 0.041 -0.006 0.074 -0.029 0.095 -0.044 c 0.03 -0.021 0.049 -0.056 0.049 -0.093 c 0 -0.037 -0.018 -0.072 -0.049 -0.093 c -0.008 -0.006 -0.032 -0.022 -0.044 -0.083 c -0.001 -0.006 -0.003 -0.011 -0.005 -0.017 c 0 -0.006 0 -0.012 0 -0.018 c -0.007 -0.08 -0.04 -0.15 -0.089 -0.204 c 0.115 -0.068 0.193 -0.161 0.247 -0.293 c 0.02 -0.048 0.004 -0.102 -0.037 -0.132 c -0.019 -0.014 -0.041 -0.022 -0.064 -0.022 c -0.012 -0.005 -0.025 -0.007 -0.039 -0.007 c 0 0 -0.001 0 -0.002 0 c -0.032 0 -0.066 0.001 -0.099 0.003 c 0.092 -0.142 0.146 -0.306 0.158 -0.487 c 0.002 -0.029 -0.007 -0.058 -0.026 -0.079 c -0.007 -0.015 -0.016 -0.029 -0.029 -0.04 c -0.036 -0.03 -0.086 -0.037 -0.128 -0.015 c -0.027 0.015 -0.067 0.018 -0.11 0.023 l -0.041 0.004 c -0.045 0.006 -0.085 0.025 -0.126 0.038 c 0 -0.001 0 -0.002 0 -0.003 c 0.007 -0.01 0.012 -0.02 0.016 -0.032 l 0.022 -0.072 c 0.001 -0.003 -0.002 -0.007 -0.002 -0.01 c 0.017 -0.021 0.044 -0.037 0.046 -0.061 c 0.001 -0.008 -0.003 -0.016 -0.004 -0.025 l 0.029 -0.052 c 0.004 -0.007 0.001 -0.016 0.004 -0.024 c 0.008 -0.009 0.017 -0.013 0.023 -0.024 c 0.002 -0.004 0.015 -0.026 0.016 -0.03 c 0.004 -0.008 0.004 -0.023 0.008 -0.034 c 0.006 -0.007 0.016 -0.009 0.021 -0.018 l 0.174 -0.316 c 0.026 -0.046 0.011 -0.1 -0.028 -0.135 c -0.04 -0.034 -0.1 -0.035 -0.145 -0.005 c -0.074 0.051 -0.108 0.075 -0.185 0.089 c -0.109 0.02 -0.179 0.059 -0.217 0.12 c -0.004 0.007 -0.009 0.015 -0.013 0.024 c -0.065 -0.014 -0.119 -0.003 -0.157 0.012 c -0.032 0.013 -0.061 0.032 -0.088 0.058 c -0.015 -0.028 -0.037 -0.053 -0.069 -0.069 c -0.006 -0.003 -0.014 -0.007 -0.023 -0.009 c -0.001 -0.006 -0.002 -0.012 -0.004 -0.018 c -0.004 -0.026 -0.025 -0.1 -0.117 -0.124 c -0.037 -0.041 -0.079 -0.082 -0.121 -0.122 c -0.048 -0.045 -0.095 -0.09 -0.132 -0.136 c -0.022 -0.028 -0.047 -0.044 -0.092 -0.042 c -0.036 0.001 -0.069 0.019 -0.089 0.049 c -0.036 0.051 -0.073 0.103 -0.109 0.154 c -0.029 0.04 -0.058 0.081 -0.087 0.122 c -0.088 0.031 -0.103 0.104 -0.105 0.123 c -0.002 0.009 -0.003 0.018 -0.003 0.027 c -0.006 0.003 -0.012 0.006 -0.017 0.009 c -0.032 0.019 -0.051 0.048 -0.063 0.077 c -0.029 -0.023 -0.061 -0.041 -0.095 -0.051 c -0.039 -0.013 -0.094 -0.021 -0.157 -0.001 c -0.031 -0.057 -0.1 -0.11 -0.245 -0.125 c -0.078 -0.008 -0.113 -0.029 -0.202 -0.081 c -0.046 -0.026 -0.103 -0.018 -0.139 0.02 c -0.036 0.038 -0.041 0.096 -0.012 0.14 l 0.186 0.278 c 0.003 0.004 0.009 0.003 0.012 0.007 c 0.005 0.02 0.007 0.039 0.02 0.063 c 0.017 0.032 0.042 0.045 0.066 0.062 c 0.002 0.005 -0.001 0.011 0.002 0.016 l 0.033 0.05 c 0 0.011 -0.002 0.022 0.001 0.033 c 0.005 0.02 0.028 0.03 0.043 0.046 c 0 0.001 -0.001 0.003 0 0.004 l 0.027 0.067 c 0.005 0.013 0.013 0.025 0.022 0.035 c 0 0.002 0.001 0.003 0.001 0.005 c -0.043 -0.009 -0.082 -0.024 -0.135 -0.027 l -0.043 -0.001 c -0.043 -0.001 -0.083 -0.003 -0.11 -0.015 c -0.044 -0.019 -0.095 -0.01 -0.127 0.024 c -0.01 0.011 -0.018 0.022 -0.023 0.035 c -0.018 0.022 -0.028 0.051 -0.025 0.082 c 0.019 0.18 0.083 0.338 0.195 0.481 c -0.033 0.001 -0.066 0.003 -0.098 0.005 c -0.012 0 -0.025 0.004 -0.036 0.008 c -0.023 0.002 -0.046 0.011 -0.064 0.027 c -0.039 0.034 -0.051 0.09 -0.027 0.136 c 0.064 0.127 0.147 0.213 0.267 0.273 c -0.044 0.055 -0.07 0.124 -0.07 0.197 c -0.002 0.011 -0.003 0.022 -0.002 0.033 c -0.001 0.005 -0.002 0.01 -0.003 0.015 c -0.007 0.062 -0.03 0.081 -0.038 0.087 c -0.029 0.024 -0.041 0.063 -0.037 0.101 c 0.004 0.038 0.03 0.073 0.064 0.091 c 0.018 0.009 0.044 0.023 0.08 0.026 c 0.012 0.007 0.025 0.012 0.039 0.014 c 0.044 0.008 0.089 0.011 0.136 0.003 c -0.01 0.03 -0.018 0.062 -0.023 0.095 c -0.003 0.017 -0.001 0.034 0.003 0.049 c 0 0 0 0 0 0.001 c -0.007 0.02 -0.009 0.04 -0.005 0.06 c -0.004 0.022 -0.003 0.044 0.006 0.066 c 0.016 0.039 0.051 0.065 0.093 0.07 c 0.051 0.005 0.096 0.001 0.139 -0.009 c 0 0.008 -0.001 0.016 -0.002 0.023 c -0.003 0.042 -0.005 0.073 -0.02 0.107 c -0.019 0.045 -0.007 0.097 0.03 0.129 c 0.011 0.01 0.025 0.018 0.039 0.022 c 0.021 0.014 0.047 0.022 0.074 0.019 c 0.001 0 0.034 -0.004 0.047 -0.005 c 0.015 0.007 0.029 0.013 0.051 0.008 c 0.044 -0.003 0.087 -0.01 0.132 -0.023 c 0.004 0.063 0.013 0.132 0.035 0.201 c 0.013 0.041 0.048 0.071 0.09 0.077 c 0.044 0.008 0.085 -0.011 0.11 -0.047 c 0.018 -0.026 0.037 -0.05 0.056 -0.072 c 0.004 -0.005 0.009 -0.011 0.012 -0.017 c 0.004 -0.003 0.009 -0.007 0.013 -0.011 c 0.014 -0.014 0.024 -0.025 0.032 -0.036 c 0.002 -0.001 0.004 -0.002 0.005 -0.003 c 0.015 0.018 0.034 0.034 0.056 0.046 c 0.004 0.003 0.018 0.01 0.029 0.045 c 0.007 0.024 0.021 0.044 0.04 0.058 c 0.011 0.015 0.027 0.028 0.045 0.037 c 0.015 0.008 0.031 0.011 0.049 0.011 c 0.029 0 0.06 -0.011 0.082 -0.029 c 0.031 -0.026 0.093 -0.076 0.131 -0.157 l 0.005 0.004 c 0.005 0.004 0.01 0.008 0.016 0.012 C 42.584 19.057 42.588 19.062 42.593 19.067 z" style="stroke: none; stroke-width: 1; stroke-dasharray: none; stroke-linecap: butt; stroke-linejoin: miter; stroke-miterlimit: 10; fill: rgb(247,219,23); fill-rule: nonzero; opacity: 1;" transform=" matrix(1 0 0 1 0 0) " stroke-linecap="round" />
	<path d="M 47.642 17.48 c 0.024 -0.046 0.012 -0.102 -0.026 -0.136 c -0.019 -0.016 -0.042 -0.025 -0.066 -0.027 c -0.011 -0.005 -0.023 -0.008 -0.036 -0.008 c -0.032 -0.002 -0.065 -0.004 -0.099 -0.005 c 0.104 -0.135 0.17 -0.294 0.195 -0.473 c 0.004 -0.03 -0.004 -0.059 -0.02 -0.082 c -0.005 -0.015 -0.014 -0.029 -0.026 -0.042 c -0.033 -0.033 -0.082 -0.044 -0.126 -0.024 c -0.026 0.012 -0.066 0.013 -0.108 0.014 l -0.044 0.001 c -0.052 0.003 -0.087 0.018 -0.128 0.028 c 0 -0.001 0 -0.002 0.001 -0.003 c 0.007 -0.009 0.013 -0.019 0.018 -0.029 l 0.028 -0.07 c 0.001 -0.004 -0.002 -0.007 -0.001 -0.011 c 0.018 -0.019 0.045 -0.033 0.049 -0.055 c 0.002 -0.009 -0.002 -0.018 -0.002 -0.027 l 0.033 -0.05 c 0.005 -0.007 0.003 -0.016 0.006 -0.024 c 0.007 -0.007 0.015 -0.011 0.022 -0.019 c 0.008 -0.008 0.018 -0.021 0.023 -0.031 c 0.006 -0.011 0.002 -0.02 0.006 -0.03 c 0.008 -0.007 0.019 -0.009 0.025 -0.018 l 0.198 -0.301 c 0.029 -0.044 0.018 -0.099 -0.018 -0.137 c -0.035 -0.037 -0.098 -0.044 -0.143 -0.017 c -0.078 0.046 -0.113 0.067 -0.192 0.075 c -0.07 0.008 -0.171 0.027 -0.226 0.104 c -0.005 0.007 -0.01 0.014 -0.014 0.023 c -0.067 -0.021 -0.121 -0.013 -0.158 0 c -0.033 0.011 -0.063 0.027 -0.091 0.051 c -0.012 -0.029 -0.033 -0.055 -0.062 -0.074 c -0.006 -0.004 -0.014 -0.008 -0.024 -0.011 c 0 -0.006 -0.001 -0.012 -0.003 -0.018 c -0.002 -0.026 -0.017 -0.102 -0.106 -0.133 c -0.034 -0.045 -0.074 -0.089 -0.113 -0.134 c -0.043 -0.048 -0.086 -0.096 -0.12 -0.144 c -0.02 -0.029 -0.053 -0.048 -0.088 -0.049 c -0.033 -0.003 -0.069 0.014 -0.092 0.042 c -0.038 0.047 -0.077 0.094 -0.116 0.141 c -0.033 0.04 -0.067 0.08 -0.1 0.12 c -0.089 0.024 -0.11 0.096 -0.114 0.115 c -0.002 0.01 -0.004 0.018 -0.005 0.027 c -0.007 0.003 -0.012 0.005 -0.018 0.008 c -0.033 0.017 -0.055 0.044 -0.069 0.072 c -0.027 -0.026 -0.057 -0.045 -0.09 -0.059 c -0.038 -0.015 -0.092 -0.029 -0.158 -0.013 c -0.026 -0.059 -0.091 -0.118 -0.233 -0.144 c -0.077 -0.014 -0.111 -0.037 -0.195 -0.096 c -0.042 -0.03 -0.102 -0.026 -0.14 0.009 c -0.039 0.035 -0.048 0.093 -0.022 0.139 l 0.164 0.291 c 0.002 0.004 0.009 0.004 0.012 0.008 c 0.003 0.02 0.004 0.039 0.015 0.065 c 0.014 0.033 0.038 0.048 0.06 0.067 c 0.002 0.006 -0.002 0.012 0.001 0.017 l 0.029 0.052 c 0 0.01 -0.003 0.019 -0.002 0.029 c 0.003 0.021 0.026 0.034 0.041 0.052 c 0 0.002 -0.001 0.004 -0.001 0.005 l 0.022 0.069 c 0.004 0.014 0.011 0.026 0.02 0.037 c 0 0.002 0.001 0.004 0.001 0.005 c -0.043 -0.012 -0.081 -0.03 -0.133 -0.037 l -0.04 -0.004 c -0.043 -0.004 -0.084 -0.008 -0.11 -0.023 c -0.041 -0.023 -0.093 -0.017 -0.128 0.014 c -0.011 0.009 -0.019 0.02 -0.026 0.032 c -0.02 0.021 -0.032 0.05 -0.031 0.081 c 0.005 0.18 0.057 0.342 0.158 0.494 c -0.033 -0.001 -0.066 -0.002 -0.097 -0.003 c -0.02 0.007 -0.026 0.002 -0.037 0.006 c -0.023 0 -0.046 0.007 -0.066 0.022 c -0.042 0.031 -0.058 0.086 -0.038 0.134 c 0.054 0.131 0.131 0.224 0.249 0.293 c -0.045 0.05 -0.077 0.117 -0.088 0.193 c -0.003 0.01 -0.004 0.02 -0.004 0.03 c -0.002 0.005 -0.003 0.01 -0.004 0.015 c -0.012 0.062 -0.037 0.079 -0.045 0.084 c -0.031 0.022 -0.045 0.06 -0.044 0.099 c 0.001 0.038 0.026 0.076 0.058 0.095 c 0.017 0.01 0.043 0.026 0.078 0.031 c 0.011 0.007 0.023 0.013 0.037 0.017 c 0.043 0.011 0.088 0.015 0.135 0.014 c -0.012 0.029 -0.022 0.06 -0.029 0.092 C 45 18.346 45 18.364 45.003 18.379 c 0 0 0 0.001 0 0.001 c -0.008 0.019 -0.011 0.04 -0.009 0.059 c -0.006 0.021 -0.006 0.044 0.001 0.066 c 0.013 0.039 0.046 0.068 0.087 0.076 c 0.046 0.008 0.093 0.007 0.139 0.002 c -0.001 0.007 -0.002 0.015 -0.004 0.022 c -0.006 0.042 -0.011 0.072 -0.029 0.106 c -0.022 0.043 -0.014 0.095 0.02 0.13 c 0.011 0.011 0.023 0.019 0.037 0.025 c 0.02 0.016 0.054 0.033 0.073 0.025 c 0 0 0.035 -0.001 0.047 -0.001 c 0.016 0.008 0.036 0.013 0.055 0.013 c 0.042 0 0.085 -0.004 0.129 -0.013 c -0.001 0.063 0.003 0.132 0.019 0.203 c 0.01 0.042 0.042 0.075 0.084 0.084 c 0.043 0.01 0.086 -0.006 0.113 -0.04 c 0.02 -0.025 0.04 -0.048 0.061 -0.068 c 0.004 -0.004 0.007 -0.008 0.011 -0.013 c 0.006 -0.004 0.012 -0.008 0.017 -0.012 c 0.015 -0.013 0.024 -0.022 0.033 -0.032 c 0.002 -0.001 0.004 -0.001 0.006 -0.002 c 0.014 0.019 0.031 0.036 0.053 0.05 c 0.004 0.003 0.017 0.011 0.024 0.045 c 0.005 0.025 0.018 0.046 0.037 0.062 c 0.011 0.016 0.025 0.029 0.041 0.04 s 0.037 0.015 0.057 0.015 c 0.026 0 0.055 -0.008 0.076 -0.024 c 0.033 -0.023 0.098 -0.069 0.142 -0.147 c 0.003 0.003 0.005 0.006 0.007 0.008 c 0.004 0.004 0.009 0.008 0.013 0.011 c 0.004 0.006 0.007 0.011 0.011 0.015 c 0.013 0.015 0.023 0.031 0.035 0.048 l 0.019 0.029 c 0.024 0.035 0.068 0.055 0.109 0.047 c 0.043 -0.007 0.077 -0.037 0.091 -0.077 c 0.02 -0.065 0.033 -0.132 0.039 -0.201 c 0.043 0.012 0.084 0.02 0.126 0.023 c 0.02 0.004 0.04 -0.002 0.056 -0.01 c 0.018 0.004 0.034 0.006 0.047 0.007 c 0.024 0.002 0.051 -0.005 0.07 -0.018 c 0.015 -0.005 0.029 -0.013 0.041 -0.024 c 0.035 -0.032 0.047 -0.084 0.028 -0.128 c -0.016 -0.036 -0.018 -0.067 -0.021 -0.11 c 0 -0.007 -0.001 -0.014 -0.002 -0.021 c 0.045 0.009 0.091 0.013 0.14 0.008 c 0.041 -0.004 0.077 -0.031 0.091 -0.069 c 0.011 -0.025 0.011 -0.053 0.004 -0.078 c 0.001 -0.013 0 -0.027 -0.004 -0.04 c 0.005 -0.016 0.008 -0.034 0.005 -0.052 c -0.004 -0.033 -0.012 -0.066 -0.023 -0.099 c 0.042 0.005 0.088 0.004 0.135 -0.004 c 0.011 -0.002 0.022 -0.006 0.032 -0.011 c 0.041 -0.002 0.076 -0.022 0.099 -0.035 c 0.033 -0.018 0.054 -0.052 0.057 -0.089 c 0.003 -0.037 -0.013 -0.073 -0.042 -0.097 c -0.007 -0.006 -0.031 -0.025 -0.038 -0.073 c 0 -0.009 -0.001 -0.018 -0.004 -0.028 c 0.001 -0.007 0.001 -0.013 0 -0.021 c -0.001 -0.08 -0.028 -0.153 -0.073 -0.21 C 47.493 17.695 47.578 17.607 47.642 17.48 z" style="stroke: none; stroke-width: 1; stroke-dasharray: none; stroke-linecap: butt; stroke-linejoin: miter; stroke-miterlimit: 10; fill: rgb(247,219,23); fill-rule: nonzero; opacity: 1;" transform=" matrix(1 0 0 1 0 0) " stroke-linecap="round" />
	<path d="M 45.658 21.735 c -0.011 -0.004 -0.022 -0.005 -0.034 -0.005 c -0.033 -0.004 -0.066 0.001 -0.1 0.002 c 0.092 -0.142 0.146 -0.305 0.158 -0.487 c 0.002 -0.029 -0.007 -0.058 -0.026 -0.079 c -0.007 -0.015 -0.016 -0.029 -0.029 -0.04 c -0.035 -0.032 -0.087 -0.037 -0.128 -0.014 c -0.026 0.014 -0.066 0.018 -0.107 0.022 l -0.042 0.005 c -0.052 0.006 -0.086 0.025 -0.127 0.038 c 0 -0.001 0 -0.003 0 -0.004 c 0.007 -0.009 0.012 -0.019 0.015 -0.031 l 0.022 -0.072 c 0.001 -0.003 -0.002 -0.006 -0.001 -0.01 c 0.017 -0.02 0.043 -0.036 0.045 -0.059 c 0.001 -0.008 -0.003 -0.017 -0.004 -0.025 l 0.029 -0.053 c 0.004 -0.008 0.001 -0.016 0.004 -0.024 c 0.008 -0.009 0.016 -0.013 0.023 -0.024 c 0.001 -0.002 0.015 -0.028 0.016 -0.03 c 0.005 -0.012 0 -0.019 0.003 -0.03 c 0.008 -0.008 0.019 -0.011 0.025 -0.021 l 0.174 -0.315 c 0.026 -0.046 0.01 -0.099 -0.029 -0.134 c -0.039 -0.035 -0.103 -0.034 -0.146 -0.005 c -0.071 0.049 -0.107 0.073 -0.183 0.088 c -0.069 0.013 -0.167 0.039 -0.217 0.12 c -0.004 0.007 -0.009 0.015 -0.013 0.025 c -0.065 -0.014 -0.119 -0.003 -0.157 0.011 c -0.032 0.013 -0.061 0.033 -0.088 0.059 c -0.015 -0.028 -0.037 -0.053 -0.069 -0.07 c -0.006 -0.003 -0.014 -0.006 -0.023 -0.009 c 0 -0.006 -0.002 -0.012 -0.004 -0.018 c -0.004 -0.026 -0.025 -0.1 -0.117 -0.124 c -0.037 -0.041 -0.079 -0.082 -0.121 -0.122 c -0.048 -0.045 -0.095 -0.09 -0.132 -0.136 c -0.022 -0.028 -0.05 -0.037 -0.091 -0.042 c -0.036 0.001 -0.069 0.019 -0.089 0.049 c -0.036 0.051 -0.073 0.103 -0.109 0.154 c -0.029 0.04 -0.058 0.081 -0.087 0.122 c -0.088 0.031 -0.103 0.105 -0.105 0.124 c -0.002 0.009 -0.003 0.018 -0.003 0.027 c -0.006 0.003 -0.011 0.006 -0.016 0.009 c -0.032 0.019 -0.052 0.048 -0.064 0.078 c -0.029 -0.023 -0.061 -0.041 -0.094 -0.051 c -0.038 -0.013 -0.092 -0.021 -0.157 -0.001 c -0.031 -0.057 -0.1 -0.11 -0.245 -0.126 c -0.077 -0.008 -0.113 -0.029 -0.201 -0.081 c -0.046 -0.027 -0.103 -0.018 -0.139 0.02 c -0.036 0.038 -0.041 0.096 -0.012 0.14 l 0.186 0.278 c 0.003 0.004 0.009 0.003 0.012 0.007 c 0.005 0.02 0.006 0.039 0.02 0.063 c 0.017 0.032 0.042 0.045 0.066 0.062 c 0.002 0.005 -0.001 0.011 0.002 0.016 l 0.033 0.05 c 0 0.012 -0.002 0.023 0.001 0.034 c 0.005 0.02 0.028 0.03 0.043 0.046 c 0 0.001 -0.001 0.002 0 0.003 l 0.027 0.068 c 0.005 0.014 0.013 0.026 0.022 0.036 c 0 0.002 0.001 0.003 0.001 0.005 c -0.043 -0.009 -0.082 -0.024 -0.135 -0.027 l -0.044 -0.001 c -0.042 -0.001 -0.082 -0.002 -0.109 -0.015 c -0.043 -0.018 -0.093 -0.011 -0.127 0.023 c -0.011 0.011 -0.018 0.023 -0.024 0.036 c -0.018 0.022 -0.027 0.051 -0.024 0.081 c 0.019 0.179 0.083 0.337 0.195 0.481 c -0.033 0.001 -0.066 0.003 -0.098 0.005 c -0.012 0 -0.025 0.004 -0.036 0.008 c -0.023 0.002 -0.046 0.011 -0.064 0.027 c -0.039 0.033 -0.051 0.09 -0.027 0.136 c 0.064 0.127 0.147 0.213 0.268 0.272 c -0.044 0.055 -0.07 0.124 -0.071 0.198 c -0.002 0.011 -0.003 0.022 -0.002 0.033 c -0.001 0.005 -0.002 0.01 -0.003 0.015 c -0.007 0.062 -0.031 0.081 -0.039 0.087 c -0.029 0.024 -0.04 0.063 -0.037 0.101 c 0.004 0.038 0.031 0.073 0.065 0.091 c 0.018 0.009 0.044 0.023 0.08 0.026 c 0.011 0.007 0.024 0.011 0.037 0.014 c 0.043 0.008 0.089 0.01 0.136 0.003 c -0.01 0.03 -0.018 0.061 -0.023 0.094 c -0.003 0.018 -0.002 0.035 0.003 0.051 c 0 0 0 0.001 0 0.001 c -0.007 0.019 -0.008 0.039 -0.005 0.059 c -0.004 0.022 -0.003 0.044 0.006 0.066 c 0.016 0.039 0.051 0.065 0.093 0.07 c 0.049 0.006 0.095 0 0.139 -0.009 c 0 0.008 -0.001 0.016 -0.002 0.024 c -0.003 0.042 -0.005 0.072 -0.02 0.107 c -0.019 0.045 -0.007 0.096 0.029 0.128 c 0.012 0.01 0.025 0.018 0.04 0.022 c 0.021 0.014 0.047 0.022 0.074 0.019 c 0 0 0.035 -0.004 0.047 -0.005 c 0.015 0.007 0.031 0.012 0.051 0.008 c 0.043 -0.003 0.087 -0.01 0.132 -0.023 c 0.004 0.063 0.013 0.132 0.035 0.201 c 0.013 0.041 0.048 0.071 0.091 0.077 c 0.043 0.006 0.085 -0.012 0.11 -0.048 c 0.018 -0.026 0.037 -0.05 0.055 -0.072 c 0.005 -0.005 0.009 -0.01 0.012 -0.015 c 0.005 -0.004 0.01 -0.008 0.015 -0.013 c 0.013 -0.013 0.022 -0.023 0.029 -0.033 c 0.002 -0.001 0.004 -0.002 0.007 -0.003 c 0.015 0.018 0.033 0.033 0.056 0.045 c 0.004 0.003 0.018 0.01 0.028 0.044 c 0.007 0.026 0.022 0.047 0.043 0.061 c 0.011 0.014 0.027 0.026 0.044 0.035 c 0.015 0.008 0.031 0.011 0.048 0.011 c 0.03 0 0.062 -0.011 0.084 -0.03 c 0.033 -0.028 0.092 -0.077 0.129 -0.155 l 0.004 0.004 c 0.005 0.005 0.011 0.009 0.016 0.012 c 0.004 0.005 0.008 0.011 0.012 0.015 c 0.015 0.015 0.026 0.03 0.04 0.048 l 0.019 0.024 c 0.028 0.033 0.072 0.049 0.113 0.038 c 0.042 -0.01 0.074 -0.042 0.084 -0.084 c 0.015 -0.066 0.023 -0.132 0.024 -0.203 c 0.065 0.014 0.132 0.028 0.182 -0.001 c 0.017 0.002 0.033 0.004 0.046 0.004 c 0.036 0.005 0.052 -0.009 0.071 -0.025 c 0.014 -0.006 0.027 -0.015 0.038 -0.026 c 0.033 -0.035 0.041 -0.087 0.018 -0.13 c -0.018 -0.034 -0.022 -0.064 -0.028 -0.106 c -0.001 -0.007 -0.002 -0.015 -0.004 -0.022 c 0.044 0.005 0.092 0.005 0.139 -0.002 c 0.041 -0.007 0.074 -0.037 0.087 -0.076 c 0.009 -0.026 0.007 -0.054 -0.003 -0.078 c 0 -0.013 -0.002 -0.026 -0.006 -0.04 c 0.005 -0.018 0.005 -0.036 0.001 -0.055 c -0.007 -0.031 -0.017 -0.062 -0.03 -0.095 c 0.044 0.004 0.093 -0.004 0.135 -0.014 c 0.011 -0.003 0.022 -0.007 0.031 -0.013 c 0.041 -0.006 0.073 -0.028 0.094 -0.042 c 0.031 -0.021 0.05 -0.055 0.05 -0.093 c 0 -0.037 -0.018 -0.072 -0.048 -0.094 c -0.008 -0.005 -0.033 -0.022 -0.045 -0.084 c -0.001 -0.006 -0.003 -0.011 -0.005 -0.017 c 0 -0.006 0 -0.012 0 -0.018 c -0.007 -0.08 -0.04 -0.151 -0.089 -0.204 c 0.094 -0.057 0.186 -0.145 0.248 -0.293 c 0.02 -0.048 0.005 -0.102 -0.037 -0.133 C 45.706 21.742 45.677 21.737 45.658 21.735 z" style="stroke: none; stroke-width: 1; stroke-dasharray: none; stroke-linecap: butt; stroke-linejoin: miter; stroke-miterlimit: 10; fill: rgb(247,219,23); fill-rule: nonzero; opacity: 1;" transform=" matrix(1 0 0 1 0 0) " stroke-linecap="round" />
	<path d="M 57.323 16.925 l -0.012 0.004 l -3.756 -4.293 l -4.938 2.83 l -0.833 9.998 c 2.385 0.197 4.748 0.593 7.067 1.183 L 57.323 16.925 L 57.323 16.925 z" style="stroke: none; stroke-width: 1; stroke-dasharray: none; stroke-linecap: butt; stroke-linejoin: miter; stroke-miterlimit: 10; fill: rgb(23,23,150); fill-rule: nonzero; opacity: 1;" transform=" matrix(1 0 0 1 0 0) " stroke-linecap="round" />
	<path d="M 49.591 17.541 c 0.172 -0.042 0.341 -0.05 0.505 0.05 c 0.072 0.03 0.126 0.068 0.16 0.116 c 0.076 -0.059 0.154 -0.114 0.234 -0.161 c 0.113 -0.083 0.228 -0.157 0.351 -0.198 c 0.177 -0.09 0.354 -0.143 0.531 -0.159 c 0.187 -0.032 0.376 -0.034 0.563 -0.023 c 0.157 0.009 0.308 0.052 0.452 0.136 c 0.131 0.065 0.261 0.13 0.391 0.195 c 0.138 0.077 0.277 0.147 0.415 0.205 c 0.175 0.069 0.372 0.092 0.582 0.1 c 0.103 0.004 0.204 0.004 0.303 -0.023 c 0.08 -0.022 0.13 0.029 0.042 0.084 c -0.649 0.398 -1.158 0.044 -1.592 -0.115 c 0.159 0.108 0.299 0.219 0.417 0.333 c 0.165 0.159 0.35 0.32 0.676 0.469 c 0.198 0.09 0.414 0.161 0.691 0.163 c 0.094 0.001 0.195 -0.003 0.304 -0.021 c 0.055 -0.009 0.079 -0.004 0.08 0.025 c 0.001 0.02 -0.004 0.059 -0.037 0.08 c -0.167 0.112 -0.325 0.142 -0.501 0.153 c -0.335 0.022 -0.693 -0.089 -1.02 -0.264 c -0.262 -0.141 -0.439 -0.313 -0.647 -0.467 c -0.208 -0.154 -0.388 -0.239 -0.581 -0.28 c -0.191 -0.041 -0.397 -0.036 -0.571 0.018 c 0.052 0.01 0.096 0.035 0.123 0.066 c 0.09 0.053 0.205 0.076 0.371 0.095 c 0.087 0.01 0.06 0.07 -0.074 0.142 c -0.08 0.104 -0.185 0.159 -0.323 0.146 c -0.191 0.127 -0.259 0.05 -0.323 -0.033 c -0.008 0.052 -0.023 0.104 -0.046 0.154 c 0.009 0.027 0.008 0.057 -0.003 0.083 c 0.031 0.047 0.045 0.093 0.035 0.144 c 0.005 0.027 0.014 0.053 0.043 0.077 c 0.04 0.036 0.066 0.078 0.07 0.129 c 0.001 0.034 0.02 0.062 0.046 0.087 c 0.039 0.032 0.078 0.06 0.117 0.108 c 0.115 0.042 0.169 0.13 0.188 0.245 c 0.087 0.028 0.123 0.092 0.14 0.167 c 0.049 0.021 0.095 0.046 0.121 0.09 c 0.178 0 0.352 0 0.515 0.018 c 0.153 0.016 0.277 0.111 0.388 0.235 c 0.075 0.011 0.151 0.015 0.229 -0.003 c 0.08 -0.035 0.165 -0.062 0.257 -0.07 c 0.153 -0.013 0.305 -0.021 0.451 0.014 c 0.098 0.024 0.176 0.076 0.239 0.148 c 0.091 0.103 0.231 0.089 0.35 0.039 c 0.162 -0.069 0.297 -0.067 0.464 0.006 c 0.067 -0.028 0.14 -0.039 0.212 -0.033 c 0.061 -0.066 0.125 -0.082 0.192 -0.084 c 0.108 -0.004 0.186 0.013 0.166 0.152 c -0.006 0.038 -0.028 0.074 -0.056 0.087 c -0.05 0.107 -0.144 0.139 -0.264 0.129 c -0.013 0.074 -0.043 0.128 -0.092 0.164 c 0.055 0.17 0.002 0.239 -0.124 0.236 c -0.026 0.049 -0.066 0.08 -0.133 0.07 c -0.042 0.054 -0.103 0.09 -0.171 0.101 c 0.007 0.044 0.026 0.065 0.058 0.113 c 0.086 0.13 -0.043 0.182 -0.161 0.184 c 0.03 0.086 0.034 0.172 0.023 0.257 c 0.12 0.073 0.136 0.149 0.025 0.225 c 0.081 0.142 0.05 0.246 -0.102 0.322 c -0.002 0.079 -0.01 0.159 -0.063 0.203 c -0.036 0.031 -0.088 0.036 -0.054 0.094 c 0.062 0.102 0.048 0.231 -0.043 0.234 c -0.02 -0.002 -0.037 0.001 -0.039 0.032 c 0 0.011 -0.01 0.022 -0.027 0.032 c -0.11 0.059 -0.212 0.126 -0.306 0.203 c -0.014 0.009 -0.028 0.016 -0.042 0.003 c -0.068 0.149 -0.196 0.301 -0.338 0.454 c -0.022 0.112 -0.085 0.188 -0.191 0.228 c -0.006 0.032 -0.031 0.057 -0.063 0.064 c 0.059 0.065 0.081 0.129 0.024 0.191 c -0.07 0.076 -0.162 0.151 -0.254 0.175 c -0.196 0.05 -0.319 0.041 -0.398 -0.034 c -0.069 -0.067 -0.042 -0.116 0.002 -0.137 c -0.121 0.009 -0.146 -0.055 -0.142 -0.14 c 0.007 -0.042 0.022 -0.037 0.064 -0.035 c 0.066 0.002 0.125 -0.034 0.187 -0.054 c 0.024 -0.041 0.056 -0.076 0.095 -0.106 c 0.022 -0.137 0.109 -0.213 0.226 -0.258 c 0.095 -0.036 0.186 -0.128 0.274 -0.247 l 0.163 -0.281 c -0.033 -0.043 -0.05 -0.095 -0.05 -0.149 c -0.045 -0.024 -0.082 -0.059 -0.109 -0.101 c -0.086 -0.006 -0.121 -0.045 -0.133 -0.098 c -0.022 0 -0.043 -0.003 -0.064 -0.009 c -0.042 0.027 -0.084 0.051 -0.136 0.048 c -0.065 0.067 -0.136 0.126 -0.213 0.178 c -0.025 0.07 -0.076 0.099 -0.138 0.108 c -0.175 0.021 -0.28 0.239 -0.376 0.328 c -0.039 0.029 -0.063 0.08 -0.08 0.141 c -0.008 0.115 -0.028 0.205 -0.091 0.207 c -0.057 -0.002 -0.066 -0.008 -0.067 -0.014 c -0.025 -0.003 -0.049 -0.002 -0.074 0.003 c 0.047 0.052 0.055 0.117 0.011 0.175 c -0.044 0.057 -0.106 0.074 -0.166 0.078 c -0.125 0.008 -0.226 -0.003 -0.32 -0.041 c -0.089 -0.037 -0.1 -0.09 -0.097 -0.142 c -0.065 -0.03 -0.077 -0.061 -0.07 -0.091 c 0.009 -0.039 0.045 -0.059 0.09 -0.046 c 0.039 -0.019 0.078 -0.031 0.117 -0.039 c 0.113 -0.122 0.229 -0.227 0.357 -0.275 c 0.038 -0.047 0.083 -0.087 0.133 -0.12 c 0.015 -0.11 0.087 -0.196 0.175 -0.276 c 0.008 -0.04 0.021 -0.079 0.043 -0.119 c -0.005 -0.023 0.001 -0.035 0.002 -0.057 c -0.036 -0.067 -0.057 -0.146 -0.031 -0.213 c -0.011 -0.034 -0.014 -0.07 -0.01 -0.106 c -0.21 0.125 -0.275 0.083 -0.299 -0.019 c -0.077 0.065 -0.149 0.095 -0.2 0.002 c -0.075 0.022 -0.15 0.047 -0.225 0.018 c -0.049 0.019 -0.098 0.036 -0.154 0.04 c -0.023 0.045 -0.053 0.09 -0.095 0.135 c -0.002 0.095 -0.035 0.189 -0.096 0.284 c -0.036 0.105 -0.082 0.207 -0.136 0.303 c 0.002 0.034 -0.005 0.068 -0.021 0.098 c 0.016 0.116 -0.023 0.173 -0.087 0.202 c -0.019 0.051 -0.046 0.099 -0.082 0.141 c -0.002 0.016 -0.003 0.031 -0.005 0.046 c 0.025 0.068 0.03 0.137 -0.04 0.205 c -0.056 0.035 -0.116 0.072 -0.175 0.102 c -0.07 0.034 -0.135 0.018 -0.194 -0.003 c -0.103 -0.037 -0.095 -0.073 -0.082 -0.109 c -0.033 0.014 -0.07 0.013 -0.102 -0.001 c -0.025 -0.016 -0.041 -0.032 -0.066 -0.048 c -0.022 -0.041 -0.03 -0.077 0.024 -0.106 c 0.068 -0.03 0.115 -0.053 0.168 -0.108 c 0.019 -0.042 0.042 -0.073 0.076 -0.082 c 0.032 -0.076 0.072 -0.127 0.127 -0.141 c 0.04 -0.094 0.083 -0.198 0.133 -0.288 c 0.018 -0.027 0.031 -0.056 0.022 -0.087 c -0.001 -0.025 0.001 -0.05 0.022 -0.064 c 0.012 -0.01 0.033 -0.02 0.006 -0.034 c -0.024 -0.076 -0.012 -0.159 0.032 -0.226 c 0.055 -0.083 0.116 -0.282 0.058 -0.38 c -0.011 -0.055 -0.021 -0.117 -0.014 -0.169 c -0.02 -0.001 -0.035 0.002 -0.055 -0.012 c -0.044 -0.027 -0.082 -0.001 -0.115 0.048 c -0.024 0.062 -0.049 0.117 -0.074 0.117 c -0.023 0.16 -0.102 0.285 -0.184 0.317 c -0.019 0.074 -0.031 0.147 -0.021 0.221 c 0.008 0.08 0 0.135 -0.037 0.144 c -0.041 0.01 -0.079 0.034 -0.102 0.099 c -0.008 0.021 -0.013 0.043 -0.014 0.066 c 0.057 0.059 0.04 0.131 -0.015 0.185 c -0.122 0.12 -0.275 0.103 -0.435 0.055 c -0.116 -0.046 -0.145 -0.095 -0.133 -0.144 c -0.165 -0.014 -0.132 -0.14 0.005 -0.178 c 0.147 -0.041 0.266 -0.136 0.364 -0.27 c 0.009 -0.159 0.046 -0.268 0.131 -0.285 c 0.008 -0.098 0.039 -0.186 0.08 -0.269 c 0.043 -0.076 0.069 -0.158 0.054 -0.26 c -0.091 -0.057 -0.095 -0.116 -0.011 -0.176 c 0.028 -0.016 0.025 -0.033 -0.01 -0.05 c -0.056 -0.005 -0.049 -0.059 -0.045 -0.109 c -0.002 -0.025 -0.016 -0.039 -0.04 -0.04 c -0.123 -0.018 -0.093 -0.068 -0.04 -0.123 c 0.022 -0.025 0.037 -0.062 0.014 -0.077 c -0.019 -0.012 -0.032 -0.054 -0.036 -0.091 c -0.076 -0.057 -0.043 -0.115 0 -0.172 c -0.043 -0.036 -0.063 -0.089 -0.068 -0.151 c -0.141 -0.006 -0.193 -0.077 -0.117 -0.181 c 0.035 -0.048 0.077 -0.09 0.123 -0.127 c 0.032 -0.052 0.063 -0.105 0.048 -0.157 c -0.04 -0.103 0.089 -0.18 0.199 -0.26 c -0.015 -0.024 -0.023 -0.052 -0.024 -0.08 c -0.063 -0.06 -0.047 -0.115 0.022 -0.168 c -0.014 -0.025 -0.023 -0.053 -0.025 -0.082 c -0.155 0.031 -0.154 -0.062 -0.082 -0.21 c -0.089 -0.051 -0.065 -0.143 0.098 -0.282 c 0.001 -0.026 0.007 -0.051 0.018 -0.074 c -0.069 0.001 -0.137 0.022 -0.196 0.059 c -0.062 0.04 -0.123 0.035 -0.185 0.01 c -0.022 -0.032 -0.049 -0.059 -0.082 -0.08 c -0.037 -0.029 -0.054 -0.077 -0.043 -0.123 c -0.182 0.01 -0.217 -0.124 -0.108 -0.203 c 0.061 -0.049 0.105 -0.099 0.122 -0.154 c 0.049 -0.125 0.153 -0.209 0.255 -0.297 c 0 -0.036 0.008 -0.071 0.02 -0.108 c -0.045 -0.03 -0.093 -0.052 -0.145 -0.056 c -0.02 -0.054 -0.06 -0.099 -0.112 -0.125 c -0.034 -0.02 -0.045 -0.039 -0.024 -0.085 c -0.096 -0.086 -0.072 -0.139 -0.048 -0.188 L 49.591 17.541 z" style="stroke: none; stroke-width: 1; stroke-dasharray: none; stroke-linecap: butt; stroke-linejoin: miter; stroke-miterlimit: 10; fill: rgb(247,219,23); fill-rule: nonzero; opacity: 1;" transform=" matrix(1 0 0 1 0 0) " stroke-linecap="round" />
	<path d="M 61.596 28.981 l 4.058 -9.199 l -2.994 -4.834 l -5.339 1.977 l -2.471 9.722 C 57.16 27.236 59.416 28.017 61.596 28.981 L 61.596 28.981 z" style="stroke: none; stroke-width: 1; stroke-dasharray: none; stroke-linecap: butt; stroke-linejoin: miter; stroke-miterlimit: 10; fill: rgb(0,147,221); fill-rule: nonzero; opacity: 1;" transform=" matrix(1 0 0 1 0 0) " stroke-linecap="round" />
	<path d="M 56.421 20.472 c 2.652 0.677 5.243 1.574 7.746 2.681 l -1.566 3.551 c -2.306 -1.02 -4.693 -1.846 -7.136 -2.47 L 56.421 20.472 z" style="stroke: none; stroke-width: 1; stroke-dasharray: none; stroke-linecap: butt; stroke-linejoin: miter; stroke-miterlimit: 10; fill: rgb(255,255,255); fill-rule: nonzero; opacity: 1;" transform=" matrix(1 0 0 1 0 0) " stroke-linecap="round" />
	<path d="M 62.853 26.134 l 1.046 -2.371 c -2.469 -1.092 -5.025 -1.977 -7.641 -2.645 l -0.617 2.426 c 2.481 0.634 4.906 1.473 7.248 2.509 L 62.853 26.134 L 62.853 26.134 z" style="stroke: none; stroke-width: 1; stroke-dasharray: none; stroke-linecap: butt; stroke-linejoin: miter; stroke-miterlimit: 10; fill: rgb(255,0,0); fill-rule: nonzero; opacity: 1;" transform=" matrix(1 0 0 1 0 0) " stroke-linecap="round" />
	<path d="M 57.01 22.965 c 0.07 -0.044 0.145 -0.033 0.22 -0.022 c 0.061 -0.023 0.131 -0.031 0.207 -0.028 c 0.033 -0.018 0.07 -0.03 0.113 -0.038 c 0.023 -0.018 0.023 -0.037 0.003 -0.057 c -0.017 -0.019 -0.028 -0.043 -0.031 -0.069 c -0.121 -0.07 -0.165 -0.177 -0.211 -0.282 c -0.068 -0.018 -0.1 -0.041 -0.108 -0.067 c -0.033 -0.003 -0.067 -0.006 -0.099 -0.01 c -0.157 0.017 -0.197 -0.033 -0.252 -0.074 c -0.046 -0.016 -0.087 -0.041 -0.113 -0.09 l -0.051 -0.065 c -0.043 -0.054 -0.03 -0.126 0.034 -0.122 c 0.046 0.005 0.091 0.005 0.132 -0.013 c 0.049 -0.022 0.121 -0.022 0.177 -0.017 c 0.065 -0.004 0.107 -0.046 0.17 -0.106 c -0.001 -0.025 -0.001 -0.05 -0.001 -0.076 c -0.01 -0.027 0.003 -0.04 0.039 -0.036 c 0.07 -0.001 0.136 0.038 0.169 0.099 c 0.099 0.017 0.177 0.065 0.229 0.147 c 0.131 0.001 0.22 0.05 0.231 0.099 c 0.008 0.036 -0.031 0.076 -0.09 0.12 c 0 0.009 0.001 0.018 0.001 0.027 c 0.035 0.031 0.059 0.061 0.07 0.091 c 0.074 0.028 0.144 0.067 0.21 0.122 c 0.188 -0.022 0.504 0.115 0.933 0.388 c 0.277 0.048 0.548 0.128 0.806 0.238 c 0.055 0.002 0.109 0.003 0.164 0.005 c 0.464 -0.068 0.914 -0.016 1.331 0.303 c 0.158 0.019 0.299 0.068 0.436 0.125 c 0.102 0.042 0.205 0.058 0.309 0.068 c 0.176 0.016 0.349 0.062 0.51 0.137 c 0.191 0.043 0.369 0.103 0.479 0.236 c 0.079 0.095 0.06 0.182 -0.04 0.218 c -0.06 0.127 -0.18 0.133 -0.36 0.07 c -0.124 0.023 -0.26 -0.076 -0.384 -0.17 c -0.172 -0.055 -0.33 -0.155 -0.486 -0.26 c -0.081 -0.061 -0.163 -0.099 -0.243 -0.117 c -0.063 -0.013 -0.119 -0.022 -0.156 0 c -0.019 0.011 -0.016 0.018 0 0.031 c 0.043 0.036 0.074 0.091 0.084 0.157 c 0.009 0.058 -0.001 0.125 0.003 0.196 c 0.004 0.074 0.049 0.129 0.124 0.175 c 0.052 0.031 0.113 0.065 0.202 0.077 c 0.042 0.008 0.054 0.033 0.053 0.065 c 0.023 0.113 0.045 0.227 0.087 0.33 c 0.012 0.029 0.034 0.043 0.067 0.068 c 0.115 0.083 0.055 0.175 -0.049 0.195 c -0.092 0.081 -0.17 0.135 -0.264 0.156 c -0.074 0.025 -0.105 -0.005 -0.13 -0.042 c -0.036 0.002 -0.069 -0.017 -0.087 -0.048 c -0.091 -0.067 -0.013 -0.184 0.205 -0.134 c 0.005 -0.025 0.023 -0.033 0.042 -0.033 c -0.013 -0.057 -0.02 -0.119 0.004 -0.178 c -0.019 -0.013 -0.036 -0.028 -0.064 -0.038 c -0.079 -0.025 -0.153 -0.061 -0.212 -0.116 c -0.112 -0.105 -0.287 -0.193 -0.455 -0.282 c -0.139 -0.007 -0.243 -0.071 -0.352 -0.125 l -0.148 -0.002 c -0.043 -0.014 -0.078 0.001 -0.104 0.031 c -0.044 0.053 -0.094 0.044 -0.154 0.037 c -0.068 -0.008 -0.138 -0.003 -0.207 -0.004 c -0.034 0.008 -0.067 0.019 -0.104 0.02 c -0.077 -0.004 -0.153 -0.005 -0.205 0.038 c -0.043 0.045 -0.085 0.042 -0.128 0.025 c -0.026 -0.011 -0.049 -0.027 -0.068 -0.047 c -0.054 -0.011 -0.089 -0.024 -0.1 -0.041 c -0.091 -0.025 -0.116 -0.051 -0.112 -0.076 c -0.12 -0.029 -0.063 -0.124 0.015 -0.127 c 0.092 -0.004 0.176 0.014 0.266 0.026 c 0.076 0.022 0.169 0.009 0.23 -0.047 c 0.04 -0.036 0.055 -0.067 0.104 -0.094 c -0.156 -0.01 -0.27 -0.038 -0.355 -0.091 c -0.227 -0.143 -0.409 -0.178 -0.554 -0.057 c -0.039 0.022 -0.068 0.031 -0.11 0.015 c -0.037 -0.012 -0.076 -0.014 -0.114 -0.005 c -0.082 0.019 -0.163 0.008 -0.245 -0.022 c -0.118 0.031 -0.241 0.036 -0.36 0.012 c -0.101 0.053 -0.176 0.059 -0.223 0.018 c -0.043 -0.024 -0.085 -0.05 -0.126 -0.078 c -0.065 -0.01 -0.092 -0.026 -0.095 -0.047 c -0.083 -0.009 -0.093 -0.039 -0.092 -0.072 c -0.034 -0.04 -0.022 -0.07 0.013 -0.095 c 0.061 -0.025 0.125 -0.035 0.195 0.001 c 0.042 0.02 0.073 0.039 0.099 0.059 c 0.047 -0.005 0.087 0 0.122 0.013 c 0.026 -0.041 0.1 -0.043 0.181 -0.038 c 0.04 -0.027 0.088 -0.046 0.15 -0.051 c -0.002 -0.01 -0.004 -0.02 -0.005 -0.029 c -0.081 -0.022 -0.123 -0.08 -0.163 -0.14 c -0.125 -0.002 -0.214 -0.055 -0.303 -0.11 c -0.073 0.006 -0.132 -0.018 -0.189 -0.052 c -0.046 0.004 -0.098 0.005 -0.147 -0.007 c -0.09 0.026 -0.184 0.026 -0.274 0 c -0.061 0.006 -0.11 0 -0.159 -0.005 c -0.057 0.065 -0.121 0.077 -0.191 0.044 c -0.039 -0.049 -0.093 -0.081 -0.162 -0.099 c -0.052 -0.017 -0.068 -0.04 -0.078 -0.065 c -0.064 -0.039 -0.051 -0.078 0.011 -0.108 c 0.046 -0.023 0.104 -0.027 0.192 0.017 c 0.029 0.011 0.061 0.018 0.097 0.021 L 57.01 22.965 z" style="stroke: none; stroke-width: 1; stroke-dasharray: none; stroke-linecap: butt; stroke-linejoin: miter; stroke-miterlimit: 10; fill: rgb(0,0,0); fill-rule: nonzero; opacity: 1;" transform=" matrix(1 0 0 1 0 0) " stroke-linecap="round" />
	<path d="M 60.402 16.891 l 0.008 0.044 l 0.183 0.946 l -0.726 0.633 l -0.033 0.029 l 0.042 0.015 l 0.911 0.315 l 0.185 0.946 l 0.009 0.044 l 0.033 -0.029 l 0.728 -0.631 l 0.912 0.312 l 0.042 0.014 l -0.008 -0.044 l -0.183 -0.946 l 0.727 -0.633 l 0.033 -0.029 l -0.042 -0.014 l -0.911 -0.315 l -0.185 -0.946 l -0.009 -0.043 l -0.033 0.029 l -0.729 0.631 l -0.912 -0.313 L 60.402 16.891 z" style="stroke: none; stroke-width: 1; stroke-dasharray: none; stroke-linecap: butt; stroke-linejoin: miter; stroke-miterlimit: 10; fill: rgb(247,219,23); fill-rule: nonzero; opacity: 1;" transform=" matrix(1 0 0 1 0 0) " stroke-linecap="round" />
</g>
</svg>