<svg xmlns="http://www.w3.org/2000/svg" xmlns:xlink="http://www.w3.org/1999/xlink" version="1.1" width="256" height="256" viewBox="0 0 256 256" xml:space="preserve">

<defs>
</defs>
<g style="stroke: none; stroke-width: 0; stroke-dasharray: none; stroke-linecap: butt; stroke-linejoin: miter; stroke-miterlimit: 10; fill: none; fill-rule: nonzero; opacity: 1;" transform="translate(1.4065934065934016 1.4065934065934016) scale(2.81 2.81)" >
	<path d="M 2.559 30 h 84.852 c -0.365 -1.016 -0.749 -2.02 -1.161 -3 c -1.35 -3.15 -3.15 -6.3 -5.25 -9 c -2.55 -3.45 -5.55 -6.45 -9 -9 c -7.5 -5.7 -16.8 -9 -27 -9 C 25.364 0 8.722 12.504 2.559 30 z" style="stroke: none; stroke-width: 1; stroke-dasharray: none; stroke-linecap: butt; stroke-linejoin: miter; stroke-miterlimit: 10; fill: rgb(249,249,249); fill-rule: nonzero; opacity: 1;" transform=" matrix(1 0 0 1 0 0) " stroke-linecap="round" />
	<path d="M 2.589 60 c 0.365 1.016 0.748 2.02 1.161 3 C 5.1 66.15 6.9 69.3 9 72 c 2.55 3.45 5.55 6.45 9 9 c 7.5 5.7 16.8 9 27 9 s 19.5 -3.3 27 -9 c 3.45 -2.55 6.45 -5.55 9 -9 c 2.1 -2.7 3.9 -5.85 5.25 -9 c 0.413 -0.98 0.796 -1.984 1.161 -3 H 2.589 z" style="stroke: none; stroke-width: 1; stroke-dasharray: none; stroke-linecap: butt; stroke-linejoin: miter; stroke-miterlimit: 10; fill: rgb(255,0,0); fill-rule: nonzero; opacity: 1;" transform=" matrix(1 0 0 1 0 0) " stroke-linecap="round" />
	<path d="M 90 45 c 0 -3.15 -0.3 -6.15 -0.9 -9 c -0.394 -2.067 -0.992 -4.062 -1.689 -6 H 2.559 C 0.907 34.69 0 39.736 0 45 c 0 3.15 0.3 6.15 0.9 9 c 0.394 2.067 0.992 4.062 1.689 6 h 84.822 c 0.696 -1.938 1.295 -3.933 1.689 -6 C 89.7 51.15 90 48.15 90 45 z" style="stroke: none; stroke-width: 1; stroke-dasharray: none; stroke-linecap: butt; stroke-linejoin: miter; stroke-miterlimit: 10; fill: rgb(0,0,255); fill-rule: nonzero; opacity: 1;" transform=" matrix(1 0 0 1 0 0) " stroke-linecap="round" />
	<path d="M 17.087 17.298 c 6.953 -3.064 14.873 -3.064 21.826 0 c 1.14 16.12 -2.498 25.256 -10.913 27.409 C 19.585 42.554 15.947 33.417 17.087 17.298 z" style="stroke: none; stroke-width: 1; stroke-dasharray: none; stroke-linecap: butt; stroke-linejoin: miter; stroke-miterlimit: 10; fill: rgb(0,0,255); fill-rule: nonzero; opacity: 1;" transform=" matrix(1 0 0 1 0 0) " stroke-linecap="round" />
	<path d="M 28 20.195 l 0.33 0.749 l 0.814 -0.088 l -0.484 0.66 l 0.484 0.66 l -0.814 -0.088 L 28 22.837 l -0.33 -0.749 l -0.814 0.088 l 0.484 -0.66 l -0.484 -0.66 l 0.814 0.088" style="stroke: none; stroke-width: 1; stroke-dasharray: none; stroke-linecap: butt; stroke-linejoin: miter; stroke-miterlimit: 10; fill: rgb(255,255,0); fill-rule: nonzero; opacity: 1;" transform=" matrix(1 0 0 1 0 0) " stroke-linecap="round" />
	<path d="M 24.918 16.085 l 0.33 0.749 l 0.814 -0.088 l -0.484 0.66 l 0.484 0.66 l -0.814 -0.088 l -0.33 0.749 l -0.33 -0.749 l -0.814 0.088 l 0.484 -0.66 l -0.484 -0.66 l 0.814 0.088" style="stroke: none; stroke-width: 1; stroke-dasharray: none; stroke-linecap: butt; stroke-linejoin: miter; stroke-miterlimit: 10; fill: rgb(255,255,0); fill-rule: nonzero; opacity: 1;" transform=" matrix(1 0 0 1 0 0) " stroke-linecap="round" />
	<path d="M 31.082 16.085 l 0.33 0.749 l 0.814 -0.088 l -0.484 0.66 l 0.484 0.66 l -0.814 -0.088 l -0.33 0.749 l -0.33 -0.749 l -0.814 0.088 l 0.484 -0.66 l -0.484 -0.66 l 0.814 0.088" style="stroke: none; stroke-width: 1; stroke-dasharray: none; stroke-linecap: butt; stroke-linejoin: miter; stroke-miterlimit: 10; fill: rgb(255,255,0); fill-rule: nonzero; opacity: 1;" transform=" matrix(1 0 0 1 0 0) " stroke-linecap="round" />
	<path d="M 28 24.451 l 2.642 5.284 l 1.761 -2.348 l 4.403 5.871 c 0 0.273 -0.038 0.544 -0.113 0.806 c -1.225 4.289 -4.473 7.706 -8.694 9.148 c -4.221 -1.442 -7.468 -4.859 -8.694 -9.148 c -0.075 -0.262 -0.113 -0.534 -0.113 -0.806 l 4.403 -5.871 l 1.761 2.348 L 28 24.451 z" style="stroke: none; stroke-width: 1; stroke-dasharray: none; stroke-linecap: butt; stroke-linejoin: miter; stroke-miterlimit: 10; fill: rgb(249,249,249); fill-rule: nonzero; opacity: 1;" transform=" matrix(1 0 0 1 0 0) " stroke-linecap="round" />
	<path d="M 19.306 34.064 c 0.445 1.559 2.07 2.462 3.629 2.016 c 0.231 -0.066 0.453 -0.16 0.661 -0.28 c 0.908 -0.524 2.027 -0.524 2.936 0 c 0.908 0.524 2.027 0.524 2.936 0 c 0.908 -0.524 2.027 -0.524 2.936 0 c 1.404 0.811 3.199 0.33 4.01 -1.074 c 0.12 -0.208 0.214 -0.43 0.28 -0.661 l 0.113 0.041 v 2.149 c -0.515 0 -1.022 0.136 -1.468 0.393 c -0.908 0.524 -2.027 0.524 -2.936 0 c -0.908 -0.524 -2.027 -0.524 -2.936 0 c -0.908 0.524 -2.027 0.524 -2.936 0 c -0.908 -0.524 -2.027 -0.524 -2.936 0 c -0.908 0.524 -2.027 0.524 -2.936 0 c -0.446 -0.258 -0.952 -0.393 -1.468 -0.393 v -2.149" style="stroke: none; stroke-width: 1; stroke-dasharray: none; stroke-linecap: butt; stroke-linejoin: miter; stroke-miterlimit: 10; fill: rgb(0,0,255); fill-rule: nonzero; opacity: 1;" transform=" matrix(1 0 0 1 0 0) " stroke-linecap="round" />
	<path d="M 19.306 35.759 c 0.445 1.559 2.07 2.462 3.629 2.016 c 0.231 -0.066 0.453 -0.16 0.661 -0.28 c 0.908 -0.524 2.027 -0.524 2.936 0 c 0.908 0.524 2.027 0.524 2.936 0 c 0.908 -0.524 2.027 -0.524 2.936 0 c 1.404 0.811 3.199 0.33 4.01 -1.074 c 0.12 -0.208 0.214 -0.43 0.28 -0.661 l 0.113 0.041 v 2.149 c -0.515 0 -1.022 0.136 -1.468 0.393 c -0.908 0.524 -2.027 0.524 -2.936 0 c -0.908 -0.524 -2.027 -0.524 -2.936 0 c -0.908 0.524 -2.027 0.524 -2.936 0 c -0.908 -0.524 -2.027 -0.524 -2.936 0 c -0.908 0.524 -2.027 0.524 -2.936 0 c -0.446 -0.258 -0.952 -0.393 -1.468 -0.393 V 35.8" style="stroke: none; stroke-width: 1; stroke-dasharray: none; stroke-linecap: butt; stroke-linejoin: miter; stroke-miterlimit: 10; fill: rgb(0,0,255); fill-rule: nonzero; opacity: 1;" transform=" matrix(1 0 0 1 0 0) " stroke-linecap="round" />
	<path d="M 16.258 17.68 c 0.274 -0.132 0.551 -0.259 0.829 -0.382 l 0.872 13.929 C 18.332 37.179 22.318 42.294 28 44.109 c 5.682 -1.815 9.668 -6.929 10.041 -12.882 l 0.872 -13.929 c 0.279 0.123 0.555 0.25 0.829 0.382 l -0.851 13.6 C 38.49 37.682 34.144 43.157 28 45 c -6.144 -1.843 -10.49 -7.318 -10.891 -13.72 L 16.258 17.68 z" style="stroke: none; stroke-width: 1; stroke-dasharray: none; stroke-linecap: butt; stroke-linejoin: miter; stroke-miterlimit: 10; fill: rgb(255,0,0); fill-rule: nonzero; opacity: 1;" transform=" matrix(1 0 0 1 0 0) " stroke-linecap="round" />
</g>
</svg>